<svg xmlns="http://www.w3.org/2000/svg" width="32" height="32" viewBox="0 0 32 32">
  <rect width="32" height="32" rx="8" fill="#2563eb"/>
  <path d="M8 11a2 2 0 0 1 2-2h5l2 2h5a2 2 0 0 1 2 2v8a2 2 0 0 1-2 2H10a2 2 0 0 1-2-2V11z" fill="none" stroke="white" stroke-width="1.5" stroke-linecap="round" stroke-linejoin="round"/>
  <path d="M16 9V7a2 2 0 0 0-2-2h-2a2 2 0 0 0-2 2v2" fill="none" stroke="white" stroke-width="1.5" stroke-linecap="round" stroke-linejoin="round"/>
  <path d="M12 16h8M12 19h5" fill="none" stroke="white" stroke-width="1.5" stroke-linecap="round"/>
</svg>
